<svg xmlns="http://www.w3.org/2000/svg" viewBox="0 0 200 200" width="200" height="200">
  <!-- Defining gradients for metallic effect -->
  <defs>
    <!-- Sword blade gradient -->
    <linearGradient id="blade-gradient" x1="0%" y1="0%" x2="100%" y2="100%">
      <stop offset="0%" style="stop-color:#d7d7d7; stop-opacity:1" />
      <stop offset="100%" style="stop-color:#8c8c8c; stop-opacity:1" />
    </linearGradient>
    <!-- Shield gradient -->
    <linearGradient id="shield-gradient" x1="50%" y1="0%" x2="50%" y2="100%">
      <stop offset="0%" style="stop-color:#d4d4d4; stop-opacity:1" />
      <stop offset="100%" style="stop-color:#666666; stop-opacity:1" />
    </linearGradient>
    <!-- Handle gradient -->
    <linearGradient id="handle-gradient" x1="0%" y1="0%" x2="100%" y2="100%">
      <stop offset="0%" style="stop-color:#8b5e3c; stop-opacity:1" />
      <stop offset="100%" style="stop-color:#5c3a23; stop-opacity:1" />
    </linearGradient>
  </defs>

  <!-- Crossed swords (behind the shield) -->
  <!-- Left Sword -->
  <g transform="rotate(-45 100 100)">
    <rect x="65" y="70" width="8" height="70" fill="url(#blade-gradient)" stroke="#666"
      stroke-width="1" />
    <rect x="60" y="130" width="18" height="8" fill="url(#handle-gradient)" stroke="#5a3821"
      stroke-width="1" />
    <circle cx="69" cy="135" r="4" fill="#333" />
  </g>

  <!-- Right Sword -->
  <g transform="rotate(45 100 100)">
    <rect x="125" y="70" width="8" height="70" fill="url(#blade-gradient)" stroke="#666"
      stroke-width="1" />
    <rect x="120" y="130" width="18" height="8" fill="url(#handle-gradient)" stroke="#5a3821"
      stroke-width="1" />
    <circle cx="129" cy="135" r="4" fill="#333" />
  </g>

  <!-- Shield (on top of crossed swords) -->
  <path d="M100 40 Q80 55 70 95 Q80 150 100 170 Q120 150 130 95 Q120 55 100 40 Z"
    fill="url(#shield-gradient)" stroke="#333" stroke-width="3" />

  <!-- Shield detailing -->
  <path d="M100 50 Q85 65 75 95 Q85 135 100 160 Q115 135 125 95 Q115 65 100 50 Z"
    fill="none" stroke="#555" stroke-width="2" />

  <!-- Lion symbol on shield -->
  <g id="lion">
    <!-- Lion's body -->
    <path
      d="M85 95 Q90 85 95 90 Q100 85 105 90 Q110 85 115 90 Q120 85 125 95 
             L125 105 Q115 110 115 120 Q105 125 105 115 Q95 125 95 115 Q85 125 85 115 Q75 110 75 105 Z"
      fill="#cc9900" stroke="#804b00" stroke-width="1" />
    <!-- Lion's legs -->
    <path d="M85 115 Q80 120 85 130 L90 130 Q95 130 95 120 Z" fill="#cc9900" stroke="#804b00"
      stroke-width="1" />
    <path d="M115 115 Q120 120 115 130 L110 130 Q105 130 105 120 Z" fill="#cc9900" stroke="#804b00"
      stroke-width="1" />
    <!-- Lion's tail -->
    <path d="M125 95 Q130 85 135 85 Q140 85 135 95 Q130 105 125 95 Z" fill="#cc9900"
      stroke="#804b00" stroke-width="1" />
  </g>

</svg>